<svg width="500" height="500" viewBox="0 0 500 500" fill="none" xmlns="http://www.w3.org/2000/svg">
<g clip-path="url(#clip0_247_253)">
<path d="M250 0C188.448 0.0438827 129.086 22.8463 83.3333 64.0208V20.8333C83.3333 15.308 81.1384 10.009 77.2314 6.10194C73.3244 2.19493 68.0254 0 62.5 0C56.9747 0 51.6756 2.19493 47.7686 6.10194C43.8616 10.009 41.6667 15.308 41.6667 20.8333V83.3333C41.6667 99.9094 48.2515 115.806 59.9725 127.528C71.6935 139.249 87.5906 145.833 104.167 145.833H166.667C172.192 145.833 177.491 143.638 181.398 139.731C185.305 135.824 187.5 130.525 187.5 125C187.5 119.475 185.305 114.176 181.398 110.269C177.491 106.362 172.192 104.167 166.667 104.167H104.167C103.464 104.063 102.768 103.916 102.083 103.729C136.032 69.5381 180.794 48.1891 228.731 43.3264C276.667 38.4636 324.805 50.3887 364.928 77.0659C405.051 103.743 434.671 143.519 448.733 189.603C462.795 235.688 460.427 285.224 442.033 329.757C423.639 374.29 390.359 411.058 347.874 433.786C305.389 456.514 256.333 463.793 209.08 454.38C161.826 444.966 119.304 419.444 88.772 382.171C58.2401 344.897 41.5911 298.182 41.6667 250C41.6667 244.475 39.4717 239.176 35.5647 235.269C31.6577 231.362 26.3587 229.167 20.8333 229.167C15.308 229.167 10.009 231.362 6.10194 235.269C2.19493 239.176 0 244.475 0 250C0 299.445 14.6622 347.78 42.1326 388.893C69.603 430.005 108.648 462.048 154.329 480.97C200.011 499.892 250.277 504.843 298.773 495.196C347.268 485.55 391.814 461.74 426.777 426.777C461.74 391.814 485.55 347.268 495.196 298.773C504.843 250.277 499.892 200.011 480.97 154.329C462.048 108.648 430.005 69.603 388.893 42.1326C347.78 14.6622 299.445 0 250 0V0Z" fill="#00303C"/>
<path d="M249.998 125C244.473 125 239.174 127.195 235.267 131.102C231.36 135.009 229.165 140.308 229.165 145.833V250C229.166 255.525 231.362 260.823 235.269 264.729L297.769 327.229C301.698 331.024 306.961 333.124 312.423 333.077C317.886 333.029 323.111 330.838 326.974 326.975C330.836 323.113 333.027 317.887 333.075 312.425C333.122 306.963 331.022 301.7 327.228 297.771L270.832 241.375V145.833C270.832 140.308 268.637 135.009 264.73 131.102C260.823 127.195 255.524 125 249.998 125Z" fill="#00303C"/>
</g>
<defs>
<clipPath id="clip0_247_253">
<rect width="500" height="500" fill="white"/>
</clipPath>
</defs>
</svg>
