<svg width="500" height="500" viewBox="0 0 500 500" fill="none" xmlns="http://www.w3.org/2000/svg">
<path d="M295.493 475C292.34 475 289.164 474.724 286.055 474.175L75.8917 437.116C67.7562 435.687 60.6602 431.169 55.9192 424.393C51.1783 417.622 49.3626 409.412 50.8011 401.272L105.658 90.1585C108.28 75.3392 121.086 64.5942 136.112 64.5942C137.884 64.5942 139.677 64.7477 141.484 65.0634L278.59 89.2419C278.884 84.5755 280.231 79.9091 282.717 75.5935L293.905 56.2131C299.734 46.1347 309.115 38.9466 320.329 35.9555C323.991 34.9731 327.794 34.4687 331.596 34.4687C335.113 34.4687 338.609 34.9029 342.008 35.7494C345.139 33.1486 348.819 31.2584 352.775 30.2322C357.845 26.8771 363.857 25 370.107 25C375.602 25 381.027 26.4517 385.803 29.2015L405.438 40.5386C416.183 46.7443 421.88 58.3796 421.073 69.9974C422.876 76.8303 422.082 84.3255 418.315 90.8514L406.25 111.749L424.108 114.898C432.257 116.337 439.344 120.858 444.081 127.626C448.822 134.397 450.637 142.612 449.199 150.747L407.118 389.4C404.592 403.715 396.649 416.188 384.751 424.52L326.706 465.163C317.509 471.601 306.716 475 295.493 475Z" fill="#F6F0E0"/>
<path d="M427.089 146.837L385.005 385.503C383.534 393.849 378.807 401.269 371.865 406.13L313.827 446.768C306.885 451.629 298.296 453.533 289.95 452.061L79.7904 415.005C75.178 414.191 72.0982 409.793 72.9115 405.18L127.771 94.0593C128.584 89.4469 132.982 86.3671 137.595 87.1804L420.21 137.013C424.822 137.826 427.902 142.225 427.089 146.837Z" fill="white"/>
<path d="M395.974 169.226C395.206 173.581 391.417 176.646 387.137 176.646C386.619 176.646 386.097 176.603 385.567 176.51L156.637 136.144C151.751 135.28 148.493 130.623 149.352 125.737C150.208 120.856 154.821 117.584 159.76 118.452L388.689 158.819C393.575 159.682 396.834 164.34 395.974 169.226ZM382.453 194.202L153.519 153.836C148.602 152.959 143.971 156.235 143.112 161.121C142.252 166.007 145.511 170.664 150.396 171.528L379.33 211.894C379.861 211.986 380.383 212.03 380.9 212.03C385.181 212.03 388.97 208.965 389.737 204.61C390.597 199.724 387.338 195.066 382.453 194.202ZM333.438 229.569L315.751 226.451C314.856 226.284 314.08 226.876 313.93 227.727C313.781 228.582 314.352 229.398 315.207 229.547L332.894 232.665C332.986 232.683 333.078 232.687 333.166 232.687C333.916 232.687 334.578 232.152 334.714 231.389C334.863 230.534 334.293 229.718 333.438 229.569ZM200.213 209.267C200.306 209.285 200.398 209.289 200.485 209.289C201.235 209.289 201.898 208.754 202.034 207.991C202.183 207.136 201.612 206.32 200.757 206.171L183.065 203.053C182.171 202.873 181.394 203.474 181.245 204.329C181.096 205.184 181.666 206 182.522 206.149L200.213 209.267ZM377.668 237.367L359.976 234.248C359.086 234.077 358.305 234.669 358.156 235.525C358.007 236.38 358.577 237.195 359.432 237.345L377.124 240.463C377.216 240.48 377.308 240.485 377.396 240.485C378.146 240.485 378.808 239.95 378.944 239.187C379.093 238.331 378.523 237.516 377.668 237.367ZM289.213 221.771L271.521 218.653C270.626 218.495 269.85 219.078 269.701 219.929C269.551 220.784 270.122 221.6 270.977 221.749L288.669 224.867C288.761 224.885 288.853 224.889 288.941 224.889C289.691 224.889 290.353 224.354 290.489 223.591C290.638 222.736 290.068 221.92 289.213 221.771ZM138.296 198.351L155.988 201.47C156.08 201.487 156.172 201.491 156.26 201.491C157.01 201.491 157.672 200.956 157.808 200.193C157.957 199.338 157.387 198.522 156.532 198.373L138.84 195.255C137.941 195.08 137.169 195.676 137.02 196.531C136.871 197.386 137.441 198.202 138.296 198.351ZM244.443 217.069C244.535 217.087 244.628 217.091 244.715 217.091C245.465 217.091 246.127 216.556 246.263 215.793C246.412 214.938 245.842 214.122 244.987 213.973L227.295 210.851C226.396 210.662 225.624 211.272 225.475 212.127C225.326 212.982 225.896 213.798 226.751 213.947L244.443 217.069ZM240.023 251.177C240.172 250.322 239.601 249.506 238.746 249.357L221.054 246.234C220.155 246.055 219.383 246.655 219.234 247.511C219.085 248.366 219.655 249.182 220.511 249.331L238.202 252.453C238.295 252.471 238.387 252.475 238.474 252.475C239.224 252.475 239.887 251.94 240.023 251.177ZM195.793 243.375C195.942 242.52 195.372 241.704 194.516 241.555L176.824 238.437C175.93 238.266 175.154 238.858 175.004 239.713C174.855 240.568 175.425 241.384 176.281 241.533L193.973 244.651C194.065 244.669 194.157 244.673 194.244 244.673C194.994 244.673 195.657 244.138 195.793 243.375ZM151.567 235.577C151.716 234.722 151.146 233.906 150.291 233.757L132.599 230.639C131.7 230.472 130.928 231.064 130.779 231.915C130.63 232.77 131.2 233.586 132.055 233.735L149.747 236.853C149.839 236.871 149.931 236.875 150.019 236.875C150.769 236.875 151.431 236.34 151.567 235.577ZM327.197 264.953L309.51 261.834C308.615 261.677 307.839 262.26 307.69 263.111C307.54 263.966 308.111 264.782 308.966 264.931L326.653 268.049C326.746 268.067 326.838 268.071 326.925 268.071C327.675 268.071 328.338 267.536 328.473 266.773C328.623 265.918 328.052 265.102 327.197 264.953ZM282.972 257.155L265.28 254.037C264.385 253.844 263.609 254.458 263.46 255.313C263.311 256.168 263.881 256.984 264.736 257.133L282.428 260.251C282.52 260.269 282.612 260.273 282.7 260.273C283.45 260.273 284.112 259.738 284.248 258.975C284.397 258.12 283.827 257.304 282.972 257.155ZM371.427 272.75L353.735 269.632C352.845 269.466 352.064 270.058 351.915 270.908C351.766 271.764 352.336 272.579 353.191 272.729L370.883 275.847C370.975 275.864 371.067 275.869 371.155 275.869C371.905 275.869 372.567 275.334 372.703 274.571C372.852 273.715 372.282 272.9 371.427 272.75ZM276.735 292.534L259.043 289.416C258.144 289.236 257.372 289.837 257.223 290.692C257.074 291.548 257.644 292.363 258.5 292.512L276.191 295.631C276.284 295.648 276.376 295.653 276.463 295.653C277.213 295.653 277.876 295.118 278.012 294.354C278.161 293.499 277.591 292.683 276.735 292.534ZM232.51 284.737L214.818 281.618C213.914 281.447 213.147 282.039 212.998 282.895C212.849 283.75 213.419 284.566 214.274 284.715L231.966 287.833C232.058 287.85 232.15 287.855 232.238 287.855C232.988 287.855 233.65 287.32 233.786 286.557C233.935 285.701 233.365 284.886 232.51 284.737ZM188.28 276.939L170.588 273.821C169.689 273.654 168.917 274.246 168.768 275.097C168.619 275.952 169.189 276.768 170.044 276.917L187.736 280.035C187.828 280.053 187.92 280.057 188.008 280.057C188.758 280.057 189.42 279.522 189.556 278.759C189.705 277.904 189.135 277.088 188.28 276.939ZM144.054 269.141L126.363 266.023C125.459 265.865 124.696 266.448 124.542 267.299C124.393 268.154 124.963 268.97 125.819 269.119L143.511 272.237C143.603 272.255 143.695 272.259 143.783 272.259C144.532 272.259 145.195 271.724 145.331 270.961C145.48 270.106 144.91 269.29 144.054 269.141ZM137.814 304.525L120.122 301.407C119.218 301.214 118.451 301.828 118.302 302.683C118.152 303.538 118.723 304.354 119.578 304.503L137.27 307.621C137.362 307.639 137.454 307.643 137.542 307.643C138.292 307.643 138.954 307.108 139.09 306.345C139.239 305.49 138.669 304.674 137.814 304.525ZM182.039 312.323L164.347 309.204C163.448 309.047 162.676 309.63 162.527 310.481C162.378 311.336 162.948 312.152 163.803 312.301L181.495 315.419C181.587 315.437 181.679 315.441 181.767 315.441C182.517 315.441 183.179 314.906 183.315 314.143C183.464 313.288 182.894 312.472 182.039 312.323ZM358.95 343.518L341.258 340.4C340.363 340.207 339.587 340.821 339.438 341.676C339.289 342.531 339.859 343.347 340.714 343.496L358.406 346.615C358.498 346.632 358.59 346.636 358.678 346.636C359.428 346.636 360.09 346.101 360.226 345.338C360.375 344.483 359.805 343.667 358.95 343.518ZM314.72 335.72L297.032 332.602C296.133 332.418 295.361 333.023 295.212 333.878C295.063 334.734 295.633 335.549 296.489 335.699L314.176 338.817C314.268 338.834 314.36 338.839 314.448 338.839C315.198 338.839 315.86 338.304 315.996 337.541C316.145 336.685 315.575 335.87 314.72 335.72ZM226.269 320.125L208.577 317.002C207.674 316.836 206.906 317.428 206.757 318.278C206.608 319.134 207.178 319.949 208.033 320.099L225.725 323.221C225.817 323.239 225.909 323.243 225.997 323.243C226.747 323.243 227.409 322.708 227.545 321.945C227.694 321.09 227.124 320.274 226.269 320.125ZM270.494 327.923L252.802 324.804C251.903 324.629 251.132 325.225 250.982 326.081C250.833 326.936 251.403 327.752 252.259 327.901L269.951 331.019C270.043 331.036 270.135 331.041 270.222 331.041C270.972 331.041 271.635 330.506 271.771 329.743C271.92 328.888 271.35 328.072 270.494 327.923ZM220.028 355.504L202.336 352.386C201.437 352.228 200.665 352.812 200.516 353.662C200.367 354.518 200.937 355.333 201.792 355.482L219.484 358.601C219.576 358.618 219.668 358.623 219.756 358.623C220.506 358.623 221.168 358.088 221.304 357.324C221.453 356.469 220.883 355.653 220.028 355.504ZM264.254 363.302L246.562 360.184C245.663 360.017 244.891 360.609 244.742 361.46C244.592 362.315 245.163 363.131 246.018 363.28L263.71 366.398C263.802 366.416 263.894 366.42 263.982 366.42C264.732 366.42 265.394 365.885 265.53 365.122C265.679 364.267 265.109 363.451 264.254 363.302ZM175.798 347.707L158.106 344.588C157.207 344.395 156.435 345.009 156.286 345.865C156.137 346.72 156.707 347.536 157.562 347.685L175.254 350.803C175.346 350.82 175.439 350.825 175.526 350.825C176.276 350.825 176.938 350.29 177.074 349.527C177.224 348.671 176.653 347.856 175.798 347.707ZM131.573 339.909L113.881 336.791C112.977 336.606 112.21 337.212 112.061 338.067C111.912 338.922 112.482 339.738 113.337 339.887L131.029 343.005C131.121 343.023 131.213 343.027 131.301 343.027C132.051 343.027 132.713 342.492 132.849 341.729C132.998 340.874 132.428 340.058 131.573 339.909ZM125.336 375.293L107.644 372.174C106.736 371.999 105.978 372.595 105.824 373.451C105.675 374.306 106.245 375.122 107.1 375.271L124.792 378.389C124.885 378.407 124.977 378.411 125.064 378.411C125.814 378.411 126.477 377.876 126.612 377.113C126.762 376.258 126.191 375.442 125.336 375.293ZM258.017 398.686L240.325 395.568C239.422 395.41 238.654 395.993 238.505 396.844C238.356 397.699 238.926 398.515 239.781 398.664L257.473 401.782C257.565 401.8 257.657 401.804 257.745 401.804C258.495 401.804 259.157 401.269 259.293 400.506C259.442 399.651 258.872 398.835 258.017 398.686ZM169.562 383.09L151.87 379.972C150.966 379.788 150.203 380.393 150.05 381.248C149.901 382.104 150.471 382.919 151.326 383.069L169.018 386.187C169.11 386.204 169.202 386.209 169.29 386.209C170.04 386.209 170.702 385.674 170.838 384.911C170.987 384.055 170.417 383.24 169.562 383.09ZM213.792 390.888L196.1 387.77C195.196 387.577 194.433 388.191 194.28 389.046C194.13 389.901 194.701 390.717 195.556 390.866L213.248 393.985C213.34 394.002 213.432 394.006 213.52 394.006C214.27 394.006 214.932 393.471 215.068 392.708C215.217 391.853 214.647 391.037 213.792 390.888Z" fill="#414785"/>
<path d="M379.856 398.035C377.693 401.162 375.027 403.915 371.89 406.112L313.802 446.786C310.665 448.982 307.166 450.545 303.487 451.509L313.462 394.94C314.275 390.327 318.674 387.247 323.286 388.061L379.856 398.035Z" fill="#81C6D5"/>
<path d="M309.945 100.283C308.423 100.283 306.879 99.8971 305.462 99.0813C301.169 96.599 299.695 91.1081 302.173 86.8101L313.352 67.4428C316.163 62.5791 320.694 59.1012 326.119 57.6495C331.544 56.1979 337.211 56.9434 342.074 59.7547L353.157 66.149C357.451 68.6314 358.924 74.1223 356.446 78.4203C353.968 82.7139 348.473 84.1787 344.175 81.7095L333.088 75.3108C332.145 74.7626 331.224 74.881 330.768 74.9994C330.312 75.1222 329.461 75.4687 328.913 76.4248L317.734 95.792C316.067 98.6735 313.05 100.283 309.945 100.283Z" fill="#E78836"/>
<path d="M394.213 59.9827L374.6 48.6588C370.289 46.1765 364.811 47.6501 362.329 51.9481C359.851 56.2417 361.32 61.737 365.618 64.2193L385.231 75.5432C386.647 76.359 388.191 76.7449 389.713 76.7449C392.818 76.7449 395.835 75.1353 397.502 72.2539C399.98 67.9603 398.511 62.465 394.213 59.9827Z" fill="#E78836"/>
<path d="M297.716 217.003C292.917 218.588 287.809 215.638 286.782 210.69C283.062 192.772 286.062 174.111 295.213 158.262L355.176 54.4033C356.628 51.8872 359.846 51.0252 362.362 52.4778L396.943 72.4431C399.459 73.8958 400.321 77.1131 398.868 79.6292L338.905 183.488C329.755 199.337 315.094 211.266 297.716 217.003Z" fill="#F9CC4B"/>
</svg>
