<svg width="500" height="500" viewBox="0 0 500 500" fill="none" xmlns="http://www.w3.org/2000/svg">
<g clip-path="url(#clip0_247_240)">
<path d="M-0.000244141 395.835C0.0328362 423.451 11.0181 449.927 30.546 469.455C50.0739 488.983 76.5499 499.968 104.166 500.001H395.833C423.45 499.968 449.926 488.983 469.454 469.455C488.981 449.927 499.967 423.451 500 395.835V208.335H-0.000244141V395.835ZM354.166 302.085C360.347 302.085 366.389 303.918 371.528 307.351C376.667 310.785 380.672 315.666 383.038 321.376C385.403 327.086 386.022 333.369 384.816 339.431C383.61 345.493 380.634 351.062 376.264 355.432C371.893 359.802 366.325 362.779 360.263 363.984C354.201 365.19 347.918 364.571 342.208 362.206C336.497 359.841 331.617 355.835 328.183 350.696C324.749 345.557 322.916 339.515 322.916 333.335C322.916 325.047 326.209 317.098 332.069 311.238C337.93 305.377 345.878 302.085 354.166 302.085ZM250 302.085C256.18 302.085 262.222 303.918 267.361 307.351C272.5 310.785 276.506 315.666 278.871 321.376C281.236 327.086 281.855 333.369 280.649 339.431C279.444 345.493 276.467 351.062 272.097 355.432C267.726 359.802 262.158 362.779 256.096 363.984C250.034 365.19 243.751 364.571 238.041 362.206C232.331 359.841 227.45 355.835 224.016 350.696C220.583 345.557 218.75 339.515 218.75 333.335C218.75 325.047 222.042 317.098 227.903 311.238C233.763 305.377 241.712 302.085 250 302.085ZM145.833 302.085C152.014 302.085 158.056 303.918 163.195 307.351C168.334 310.785 172.339 315.666 174.704 321.376C177.07 327.086 177.688 333.369 176.483 339.431C175.277 345.493 172.301 351.062 167.93 355.432C163.56 359.802 157.992 362.779 151.93 363.984C145.868 365.19 139.584 364.571 133.874 362.206C128.164 359.841 123.283 355.835 119.85 350.696C116.416 345.557 114.583 339.515 114.583 333.335C114.583 325.047 117.875 317.098 123.736 311.238C129.597 305.377 137.545 302.085 145.833 302.085V302.085Z" fill="#00303C"/>
<path d="M395.833 41.6667H375V20.8333C375 15.308 372.805 10.009 368.898 6.10194C364.991 2.19493 359.692 0 354.167 0C348.641 0 343.342 2.19493 339.435 6.10194C335.528 10.009 333.333 15.308 333.333 20.8333V41.6667H166.667V20.8333C166.667 15.308 164.472 10.009 160.565 6.10194C156.658 2.19493 151.359 0 145.833 0C140.308 0 135.009 2.19493 131.102 6.10194C127.195 10.009 125 15.308 125 20.8333V41.6667H104.167C76.5501 41.6997 50.0741 52.685 30.5462 72.2129C11.0184 91.7408 0.0330804 118.217 0 145.833L0 166.667H500V145.833C499.967 118.217 488.982 91.7408 469.454 72.2129C449.926 52.685 423.45 41.6997 395.833 41.6667V41.6667Z" fill="#00303C"/>
</g>
<defs>
<clipPath id="clip0_247_240">
<rect width="500" height="500" fill="white"/>
</clipPath>
</defs>
</svg>
