<svg width="200" height="200" viewBox="0 0 200 200" fill="none" xmlns="http://www.w3.org/2000/svg">
<path d="M158.333 0H41.6668C18.6664 0.0277344 0.0277344 18.6664 0 41.6668V158.334C0.0277344 181.334 18.6664 199.973 41.6668 200H158.334C181.334 199.973 199.973 181.334 200 158.333V41.6668C199.973 18.6664 181.334 0.0277344 158.333 0ZM166.667 67.325L89.55 144.442C83.0426 150.952 72.4898 150.954 65.9797 144.446C65.9781 144.445 65.9766 144.443 65.975 144.442L33.3332 111.809C30.0723 108.548 30.0723 103.261 33.3332 100C36.5941 96.7398 41.8809 96.7395 45.1414 100L77.7746 132.634L154.9 55.5168C158.161 52.2676 163.438 52.277 166.687 55.5375C169.937 58.7984 169.927 64.0758 166.667 67.325Z" fill="#3752FD"/>
</svg>
