<svg width="500" height="500" viewBox="0 0 500 500" fill="none" xmlns="http://www.w3.org/2000/svg">
<path d="M0 0H376.289C444.613 0 500 55.3875 500 123.711V376.289C500 444.613 444.613 500 376.289 500H0V0Z" fill="#3752FD"/>
<path d="M97.9381 97.9381H355.415C383.884 97.9381 406.962 121.016 406.962 149.485V355.415C406.962 383.884 383.884 406.962 355.415 406.962H149.485C121.016 406.962 97.9381 383.884 97.9381 355.415V97.9381Z" fill="white"/>
<path d="M154.639 154.639H304.391C327.166 154.639 345.628 173.102 345.628 195.876V294.082C345.628 322.55 322.55 345.628 294.082 345.628H195.876C173.102 345.628 154.639 327.166 154.639 304.391V154.639Z" fill="#3752FD"/>
</svg>
