<svg width="500" height="500" viewBox="0 0 500 500" fill="none" xmlns="http://www.w3.org/2000/svg">
<rect width="500" height="500" rx="250" fill="#F4F7FF"/>
<g clip-path="url(#clip0_247_212)">
<path d="M250 406.25C278.465 406.25 305.15 398.634 328.136 385.335V378.523L250 406.25Z" fill="#962B7C"/>
<path d="M250 250L213.379 342.163L250 406.25C279.031 406.25 305.952 396 328.136 378.523V250H250Z" fill="#962B7C"/>
<path d="M325.411 380.616L328.136 385.335C351.846 371.616 371.616 351.847 385.335 328.136V277.013L325.411 380.616Z" fill="#622876"/>
<path d="M385.335 277.013V250H250L325.411 380.616C356.443 357.394 378.707 320.262 385.335 277.013Z" fill="#622876"/>
<path d="M387.045 239.025L372.528 320.741L385.336 328.136C398.634 305.15 406.25 278.465 406.25 250L387.045 239.025Z" fill="#077CCC"/>
<path d="M387.045 239.025L342.163 213.379L250 250L372.528 320.741C382.028 299.501 387.387 275.463 387.387 250C387.387 246.31 387.266 242.652 387.045 239.025Z" fill="#077CCC"/>
<path d="M385.335 171.864H368.997L387.387 250H406.25C406.25 221.535 398.634 194.85 385.335 171.864Z" fill="#09A1E5"/>
<path d="M268.31 171.864L250 250H387.387C387.387 221.535 380.69 194.85 368.997 171.864H268.31Z" fill="#09A1E5"/>
<path d="M328.136 114.665H318.703L372.528 179.258L385.335 171.864C371.616 148.153 351.847 128.384 328.136 114.665Z" fill="#49B296"/>
<path d="M318.703 114.665H268.31L250 250L372.528 179.259C360.453 152.26 341.683 129.787 318.703 114.665Z" fill="#49B296"/>
<path d="M250 93.75L325.411 119.384L328.136 114.665C305.15 101.366 278.465 93.75 250 93.75Z" fill="#89C247"/>
<path d="M213.379 157.837L250 250L325.411 119.384C303.762 103.185 277.852 93.75 250 93.75L213.379 157.837Z" fill="#89C247"/>
<path d="M171.864 385.335C194.85 398.634 221.535 406.25 250 406.25V250H171.864V385.335Z" fill="#CB2E81"/>
<path d="M114.665 328.136C128.384 351.847 148.153 371.616 171.864 385.335L250 250H114.665V328.136Z" fill="#FF3187"/>
<path d="M93.75 250C93.75 278.465 101.366 305.15 114.665 328.136L250 250L157.837 213.379L93.75 250Z" fill="#FF5178"/>
<path d="M114.665 171.864C101.366 194.85 93.75 221.535 93.75 250H250L231.689 171.864H114.665Z" fill="#FF9259"/>
<path d="M171.864 114.665C148.153 128.384 128.384 148.153 114.665 171.864L250 250L231.689 114.665H171.864Z" fill="#FFB24A"/>
<path d="M250 93.75C221.535 93.75 194.85 101.366 171.864 114.665L250 250V93.75Z" fill="#FFD23B"/>
<circle cx="250" cy="250" r="81.7871" fill="white"/>
</g>
<path d="M282.959 220.703C280.935 220.703 279.297 222.343 279.297 224.365V228.04C272.497 218.993 261.713 213.379 250 213.379C232.78 213.379 218.092 225.093 214.284 241.864C213.837 243.836 215.074 245.8 217.045 246.247C217.32 246.309 217.592 246.338 217.86 246.338C219.53 246.338 221.043 245.186 221.429 243.488C224.472 230.073 236.224 220.703 250 220.703C260.564 220.703 270.147 226.436 275.321 235.352H268.31C266.286 235.352 264.648 236.991 264.648 239.014C264.648 241.036 266.286 242.676 268.31 242.676H282.959C284.983 242.676 286.621 241.036 286.621 239.014V224.365C286.621 222.343 284.983 220.703 282.959 220.703Z" fill="#3752FD"/>
<path d="M217.041 279.297C219.065 279.297 220.703 277.657 220.703 275.635V271.88C227.54 281.073 238.238 286.621 250 286.621C267.22 286.621 281.908 274.907 285.716 258.136C286.163 256.164 284.926 254.2 282.955 253.753C280.964 253.294 279.018 254.54 278.571 256.512C275.527 269.927 263.776 279.297 250 279.297C239.433 279.297 229.939 273.703 224.702 264.648H231.689C233.714 264.648 235.352 263.009 235.352 260.986C235.352 258.964 233.714 257.324 231.689 257.324H217.041C215.017 257.324 213.379 258.964 213.379 260.986V275.635C213.379 277.657 215.017 279.297 217.041 279.297Z" fill="#3752FD"/>
<defs>
<clipPath id="clip0_247_212">
<rect width="312.5" height="312.5" fill="white" transform="translate(93.75 93.75)"/>
</clipPath>
</defs>
</svg>
